<svg xmlns="http://www.w3.org/2000/svg" xmlns:xlink="http://www.w3.org/1999/xlink" width="200" zoomAndPan="magnify" viewBox="0 0 150 149.999998" height="200" preserveAspectRatio="xMidYMid meet" version="1.0"><defs><clipPath id="4f1b18cbb6"><path d="M 14.464844 16.226562 L 46.566406 16.226562 L 46.566406 63.851562 L 14.464844 63.851562 Z M 14.464844 16.226562 " clip-rule="nonzero"/></clipPath><clipPath id="e390594ce5"><path d="M 75 10.03125 C 39.125 10.03125 10.046875 39.113281 10.046875 74.984375 C 10.046875 110.859375 39.125 139.9375 75 139.9375 C 110.875 139.9375 139.953125 110.859375 139.953125 74.984375 C 139.953125 39.113281 110.875 10.03125 75 10.03125 Z M 75 10.03125 " clip-rule="nonzero"/></clipPath><clipPath id="a03e1c316a"><path d="M 113.59375 44.097656 L 140 44.097656 L 140 67 L 113.59375 67 Z M 113.59375 44.097656 " clip-rule="nonzero"/></clipPath><clipPath id="17a3d12d37"><path d="M 75 10.03125 C 39.125 10.03125 10.046875 39.113281 10.046875 74.984375 C 10.046875 110.859375 39.125 139.9375 75 139.9375 C 110.875 139.9375 139.953125 110.859375 139.953125 74.984375 C 139.953125 39.113281 110.875 10.03125 75 10.03125 Z M 75 10.03125 " clip-rule="nonzero"/></clipPath><clipPath id="91c6b3c596"><path d="M 111.125 34.570312 L 135.820312 34.570312 L 135.820312 55.738281 L 111.125 55.738281 Z M 111.125 34.570312 " clip-rule="nonzero"/></clipPath><clipPath id="d52aca6122"><path d="M 75 10.03125 C 39.125 10.03125 10.046875 39.113281 10.046875 74.984375 C 10.046875 110.859375 39.125 139.9375 75 139.9375 C 110.875 139.9375 139.953125 110.859375 139.953125 74.984375 C 139.953125 39.113281 110.875 10.03125 75 10.03125 Z M 75 10.03125 " clip-rule="nonzero"/></clipPath><clipPath id="ee129b4b8e"><path d="M 122.765625 56.089844 L 139.699219 56.089844 L 139.699219 70.203125 L 122.765625 70.203125 Z M 122.765625 56.089844 " clip-rule="nonzero"/></clipPath><clipPath id="3b8e60b061"><path d="M 75 10.03125 C 39.125 10.03125 10.046875 39.113281 10.046875 74.984375 C 10.046875 110.859375 39.125 139.9375 75 139.9375 C 110.875 139.9375 139.953125 110.859375 139.953125 74.984375 C 139.953125 39.113281 110.875 10.03125 75 10.03125 Z M 75 10.03125 " clip-rule="nonzero"/></clipPath></defs><path fill="#81cba7" d="M 75 140 C 110.898438 140 140 110.898438 140 75 L 10 75 C 10 110.898438 39.101562 140 75 140 " fill-opacity="1" fill-rule="nonzero"/><path fill="#c2dfa7" d="M 140 75 C 140 39.101562 110.898438 10 75 10 C 66.070312 10 57.109375 12.492188 57.109375 12.492188 C 53.757812 13.457031 40.542969 17.542969 29.039062 29.039062 C 17.140625 40.929688 12.699219 55.121094 11.023438 64.808594 C 10.351562 68.117188 10 71.519531 10 75 C 10 106.675781 39.101562 132.351562 75 132.351562 C 110.898438 132.351562 140 106.675781 140 75 " fill-opacity="1" fill-rule="nonzero"/><path fill="#81cba7" d="M 139.421875 82.648438 L 132.355469 82.648438 C 126.015625 82.648438 120.882812 87.785156 120.882812 94.117188 L 120.882812 115.621094 C 130.757812 106.9375 137.488281 95.460938 139.421875 82.648438 " fill-opacity="1" fill-rule="nonzero"/><path fill="#81cba7" d="M 10.578125 82.648438 L 17.648438 82.648438 C 23.980469 82.648438 29.117188 87.785156 29.117188 94.117188 L 29.117188 115.621094 C 19.238281 106.9375 12.511719 95.460938 10.578125 82.648438 " fill-opacity="1" fill-rule="nonzero"/><path fill="#81cba7" d="M 29.117188 105.589844 C 29.117188 120.382812 49.640625 132.355469 75 132.355469 C 100.359375 132.355469 120.882812 120.382812 120.882812 105.589844 L 128.53125 105.589844 C 128.53125 105.589844 126.003906 132.496094 75 136.179688 C 32.054688 139.277344 25.292969 105.589844 25.292969 105.589844 L 29.117188 105.589844 " fill-opacity="1" fill-rule="nonzero"/><path fill="#4fbc8f" d="M 115.09375 94.824219 L 111.796875 98.523438 L 110.816406 94.945312 L 96.179688 103.214844 L 80.496094 107.5 L 67.425781 107.5 L 54.816406 105.589844 L 38.140625 94.824219 L 37.519531 97.648438 L 35.003906 94.824219 C 31.972656 98.039062 31.902344 103.316406 34.851562 106.621094 C 37.796875 109.929688 42.636719 110.003906 45.667969 106.785156 C 44.085938 111.0625 45.984375 115.917969 49.902344 117.640625 C 53.828125 119.363281 58.273438 117.292969 59.851562 113.015625 C 59.371094 117.597656 62.382812 121.730469 66.582031 122.25 C 70.78125 122.777344 74.570312 119.492188 75.046875 114.910156 C 75.527344 119.492188 79.3125 122.777344 83.511719 122.25 C 87.714844 121.730469 90.722656 117.597656 90.242188 113.015625 C 91.820312 117.292969 96.269531 119.363281 100.191406 117.640625 C 104.109375 115.917969 106.007812 111.0625 104.433594 106.785156 C 107.460938 110.003906 112.300781 109.929688 115.246094 106.621094 C 118.195312 103.316406 118.125 98.039062 115.09375 94.824219 " fill-opacity="1" fill-rule="nonzero"/><path fill="#4fbc8f" d="M 63.578125 67.355469 C 63.578125 73.695312 58.449219 78.824219 52.109375 78.824219 C 49.992188 78.824219 48.285156 77.113281 48.285156 75 L 48.285156 67.355469 L 63.578125 67.355469 " fill-opacity="1" fill-rule="nonzero"/><path fill="#005c51" d="M 48.285156 55.882812 C 48.285156 51.660156 51.707031 48.234375 55.929688 48.234375 C 60.15625 48.234375 63.578125 51.660156 63.578125 55.882812 L 63.578125 67.355469 C 63.578125 71.574219 60.15625 75 55.929688 75 C 51.707031 75 48.285156 71.574219 48.285156 67.355469 L 48.285156 55.882812 " fill-opacity="1" fill-rule="nonzero"/><path fill="#005c51" d="M 84.878906 75.054688 C 84.457031 75.054688 84.035156 74.914062 83.683594 74.628906 C 82.859375 73.96875 82.730469 72.765625 83.390625 71.945312 L 101.898438 48.898438 C 102.5625 48.078125 103.765625 47.945312 104.585938 48.605469 C 105.410156 49.265625 105.542969 50.46875 104.878906 51.292969 L 86.371094 74.335938 C 85.992188 74.808594 85.4375 75.054688 84.878906 75.054688 " fill-opacity="1" fill-rule="nonzero"/><path fill="#005c51" d="M 103.390625 75.054688 C 102.832031 75.054688 102.273438 74.804688 101.894531 74.332031 L 83.464844 51.289062 C 82.800781 50.464844 82.933594 49.261719 83.757812 48.601562 C 84.585938 47.941406 85.789062 48.078125 86.449219 48.902344 L 104.882812 71.949219 C 105.542969 72.769531 105.410156 73.972656 104.582031 74.632812 C 104.230469 74.914062 103.8125 75.054688 103.390625 75.054688 " fill-opacity="1" fill-rule="nonzero"/><path fill="#ffffff" d="M 75.046875 113.234375 C 74.570312 117.433594 70.78125 120.445312 66.582031 119.964844 C 62.382812 119.484375 59.371094 115.695312 59.851562 111.5 L 75.046875 113.234375 " fill-opacity="1" fill-rule="nonzero"/><path fill="#ffffff" d="M 59.851562 111.5 C 58.273438 115.421875 53.828125 117.316406 49.902344 115.738281 C 45.984375 114.160156 44.085938 109.710938 45.667969 105.789062 L 59.851562 111.5 " fill-opacity="1" fill-rule="nonzero"/><path fill="#ffffff" d="M 45.667969 105.789062 C 42.636719 108.734375 37.796875 108.667969 34.851562 105.636719 C 31.902344 102.609375 31.972656 97.773438 35.003906 94.824219 L 45.667969 105.789062 " fill-opacity="1" fill-rule="nonzero"/><path fill="#ffffff" d="M 75.046875 113.234375 C 75.527344 117.433594 79.3125 120.445312 83.511719 119.964844 C 87.714844 119.484375 90.722656 115.695312 90.242188 111.5 L 75.046875 113.234375 " fill-opacity="1" fill-rule="nonzero"/><path fill="#ffffff" d="M 90.242188 111.5 C 91.820312 115.421875 96.269531 117.316406 100.191406 115.738281 C 104.109375 114.160156 106.007812 109.710938 104.433594 105.789062 L 90.242188 111.5 " fill-opacity="1" fill-rule="nonzero"/><path fill="#ffffff" d="M 104.433594 105.789062 C 107.460938 108.734375 112.300781 108.667969 115.246094 105.636719 C 118.195312 102.609375 118.125 97.773438 115.09375 94.824219 L 104.433594 105.789062 " fill-opacity="1" fill-rule="nonzero"/><path fill="#005c51" d="M 75.046875 113.234375 C 98.632812 113.234375 117.105469 101.480469 117.105469 86.472656 C 117.105469 84.359375 115.394531 82.648438 113.28125 82.648438 C 111.171875 82.648438 109.460938 84.359375 109.460938 86.472656 C 109.460938 96.832031 93.699219 105.589844 75.046875 105.589844 C 56.394531 105.589844 40.636719 96.832031 40.636719 86.472656 C 40.636719 84.359375 38.925781 82.648438 36.8125 82.648438 C 34.703125 82.648438 32.988281 84.359375 32.988281 86.472656 C 32.988281 101.480469 51.460938 113.234375 75.042969 113.234375 " fill-opacity="1" fill-rule="nonzero"/><path fill="#81cba7" d="M 94.117188 34.953125 L 55.882812 34.953125 C 54.824219 34.953125 53.972656 34.097656 53.972656 33.039062 C 53.972656 31.984375 54.824219 31.128906 55.882812 31.128906 L 94.117188 31.128906 C 95.171875 31.128906 96.027344 31.984375 96.027344 33.039062 C 96.027344 34.097656 95.171875 34.953125 94.117188 34.953125 " fill-opacity="1" fill-rule="nonzero"/><path fill="#81cba7" d="M 94.117188 25.871094 L 55.882812 25.871094 C 54.824219 25.871094 53.972656 25.015625 53.972656 23.960938 C 53.972656 22.90625 54.824219 22.050781 55.882812 22.050781 L 94.117188 22.050781 C 95.171875 22.050781 96.027344 22.90625 96.027344 23.960938 C 96.027344 25.015625 95.171875 25.871094 94.117188 25.871094 " fill-opacity="1" fill-rule="nonzero"/><path fill="#ebf4e3" d="M 75 17.648438 C 110.898438 17.648438 140 43.324219 140 75 C 140 39.101562 110.898438 10 75 10 C 39.101562 10 10 39.101562 10 75 C 10 43.324219 39.101562 17.648438 75 17.648438 " fill-opacity="1" fill-rule="nonzero"/><g clip-path="url(#4f1b18cbb6)"><g clip-path="url(#e390594ce5)"><path fill="#6fae91" d="M 44.914062 16.371094 C 43.429688 23.25 43.761719 28.640625 44.390625 32.386719 C 45.394531 38.371094 47.628906 43.015625 45.71875 49.09375 C 45.320312 50.351562 44.347656 53.464844 42.480469 53.660156 C 41.011719 53.816406 39.414062 52.117188 38.863281 50.425781 C 38.191406 48.355469 39.363281 47.183594 40.066406 44.097656 C 41.015625 39.890625 40.597656 34.339844 38.210938 33.238281 C 37.261719 32.796875 35.917969 33.03125 34.980469 33.699219 C 30.589844 36.824219 36.347656 48.464844 32.199219 51.1875 C 31.066406 51.933594 29.335938 51.914062 28.390625 51.1875 C 25.820312 49.210938 29.453125 42.308594 26.972656 40.613281 C 26.046875 39.976562 24.636719 40.320312 23.824219 40.851562 C 22.757812 41.550781 22.160156 43.058594 22.273438 47.792969 C 22.445312 55.175781 24.035156 57.214844 22.5 60.273438 C 21.789062 61.691406 20.253906 63.632812 18.574219 63.507812 C 16.460938 63.347656 15.292969 60.011719 15.117188 59.480469 C 14.144531 56.5625 15.054688 54.292969 16.085938 50.042969 C 16.652344 47.695312 17.375 44.261719 17.882812 39.9375 C 24.660156 32.699219 31.4375 25.457031 38.210938 18.21875 C 40.449219 17.601562 42.683594 16.984375 44.914062 16.371094 " fill-opacity="1" fill-rule="nonzero"/></g></g><g clip-path="url(#a03e1c316a)"><g clip-path="url(#17a3d12d37)"><path fill="#81cba7" d="M 134.742188 44.289062 L 127.050781 53.753906 L 121.59375 56.675781 L 119.238281 62.082031 L 113.617188 66.792969 L 121.347656 65.207031 L 124.179688 59.4375 L 130.527344 57.324219 L 139.953125 49.710938 L 134.742188 44.289062 " fill-opacity="1" fill-rule="nonzero"/></g></g><g clip-path="url(#91c6b3c596)"><g clip-path="url(#d52aca6122)"><path fill="#81cba7" d="M 133.375 34.605469 C 130.496094 37.234375 127.617188 39.871094 124.738281 42.503906 C 123.148438 43.421875 121.566406 44.347656 119.980469 45.273438 C 119.070312 47.421875 118.160156 49.570312 117.25 51.71875 C 115.265625 52.996094 113.285156 54.269531 111.304688 55.542969 L 119.035156 53.953125 C 119.761719 51.640625 120.492188 49.324219 121.21875 47.007812 C 122.871094 46.183594 124.527344 45.351562 126.179688 44.527344 C 129.324219 42.046875 132.464844 39.566406 135.605469 37.082031 C 134.863281 36.257812 134.117188 35.429688 133.375 34.605469 " fill-opacity="1" fill-rule="nonzero"/></g></g><g clip-path="url(#ee129b4b8e)"><g clip-path="url(#3b8e60b061)"><path fill="#81cba7" d="M 139.421875 56.300781 L 134.105469 61.621094 L 130.152344 62.449219 L 127.320312 67.355469 L 122.976562 70.183594 L 128.53125 68.699219 L 131.09375 64.257812 L 135.800781 63.292969 L 139.421875 60.433594 L 139.421875 56.300781 " fill-opacity="1" fill-rule="nonzero"/></g></g></svg>